<?xml version="1.0" encoding="UTF-8" standalone="no"?><!DOCTYPE svg PUBLIC "-//W3C//DTD SVG 1.1//EN" "http://www.w3.org/Graphics/SVG/1.1/DTD/svg11.dtd"><svg xmlns="http://www.w3.org/2000/svg" xmlns:xlink="http://www.w3.org/1999/xlink" version="1.2" width="640" height="640" viewBox="0 0 640 640" xml:space="preserve" baseProfile="tiny-ps"><title>Company Name</title><desc>Created with Fabric.js 5.3.0</desc><defs></defs><g transform="matrix(11.3066508841 0 0 11.3066508841 320 319.7678086828)" id="fg_AwxPr3KYbksGOLiA5p"><path transform=" translate(-0.000005, -0.000005)" d="M -26.77824 -14.82099 C -26.77824 -21.4248 -21.4248 -26.77824 -14.82099 -26.77824 L 14.821 -26.77824 L 14.821 -26.77824 C 21.42481 -26.77824 26.77825 -21.4248 26.77825 -14.82099 L 26.77825 14.821 L 26.77825 14.821 C 26.77825 21.42481 21.42481 26.77825 14.821 26.77825 L -14.82099 26.77825 L -14.82099 26.77825 C -21.4248 26.77825 -26.77824 21.42481 -26.77824 14.821 z" stroke-linecap="butt" fill-rule="nonzero" fill="rgb(255,255,255)" stroke-miterlimit="4" stroke-linejoin="miter" stroke-dashoffset="0" stroke-dasharray="none" stroke-width="2" stroke="rgb(0,0,128)"/></g><g transform="matrix(0.6118041831 -0.4283899009 3.1750782837 4.5344817221 217.9620243349 209.4591926111)" id="O8dW_bSiu-6hKjtnHlusv"><path transform=" translate(0, 0)" d="M -26.77824 -25.16965 C -26.77824 -26.05805 -21.44043 -26.77824 -14.85591 -26.77824 L 14.85591 -26.77824 L 14.85591 -26.77824 C 21.44043 -26.77824 26.77824 -26.05805 26.77824 -25.16965 L 26.77824 25.16965 L 26.77824 25.16965 C 26.77824 26.05805 21.44043 26.77824 14.85591 26.77824 L -14.85591 26.77824 L -14.85591 26.77824 C -21.44043 26.77824 -26.77824 26.05805 -26.77824 25.16965 z" stroke-linecap="butt" fill-rule="nonzero" fill="rgb(0,0,128)" stroke-miterlimit="4" stroke-linejoin="miter" stroke-dashoffset="0" stroke-dasharray="none" stroke-width="0" stroke="rgb(0,0,128)"/></g><g transform="matrix(1 0 0 3.0367367917 453.7938839958 320)" id="J0ubIhXA_n200APISg_Yj"><path vector-effect="non-scaling-stroke" transform=" translate(-0.000005, 0)" d="M -80.16427 -68.96448 C -80.16427 -75.14994999999999 -64.93711 -80.16426999999999 -46.15345 -80.16426999999999 L 46.15346 -80.16426999999999 L 46.15346 -80.16426999999999 C 64.93712000000001 -80.16426999999999 80.16428 -75.14994999999999 80.16428 -68.96447999999998 L 80.16428 68.96448000000001 L 80.16428 68.96448000000001 C 80.16428 75.14995 64.93712000000001 80.16427000000002 46.15346 80.16427000000002 L -46.15345 80.16427000000002 L -46.15345 80.16427000000002 C -64.93711 80.16427000000002 -80.16427 75.14995000000002 -80.16427 68.96448000000001 z" stroke-linecap="butt" fill-rule="nonzero" fill="rgb(0,0,128)" stroke-miterlimit="4" stroke-linejoin="miter" stroke-dashoffset="0" stroke-dasharray="none" stroke-width="0" stroke="rgb(89,247,253)"/></g><g transform="matrix(0 -1 1 0 458.9790794979 320)" id="R-h8Xt-0YfTRHBrQBUoA3"><text xml:space="preserve" font-family="'Open Sans'" font-size="145" font-style="normal" font-weight="normal" fill-rule="nonzero" fill="rgb(208,213,217)" stroke-miterlimit="4" stroke-linejoin="miter" stroke-dashoffset="0" stroke-linecap="butt" stroke-dasharray="none" stroke-width="1" stroke="rgb(0,0,128)"/></g><g transform="matrix(0.6118041831 0.4283899009 -3.2084503034 4.5821419055 218.9620243349 429.2645514318)" id="KQ4uyP1c6eqpN7KuR2wEj"><path transform=" translate(0, 0)" d="M -26.77824 -25.18638 C -26.77824 -26.06554 -21.44043 -26.77824 -14.85591 -26.77824 L 14.85591 -26.77824 L 14.85591 -26.77824 C 21.44043 -26.77824 26.77824 -26.06554 26.77824 -25.18638 L 26.77824 25.18638 L 26.77824 25.18638 C 26.77824 26.06554 21.44043 26.77824 14.85591 26.77824 L -14.85591 26.77824 L -14.85591 26.77824 C -21.44043 26.77824 -26.77824 26.06554 -26.77824 25.18638 z" stroke-linecap="butt" fill-rule="nonzero" fill="rgb(0,0,128)" stroke-miterlimit="4" stroke-linejoin="miter" stroke-dashoffset="0" stroke-dasharray="none" stroke-width="0" stroke="rgb(235,120,32)"/></g></svg>
